<?xml version="1.0" encoding="iso-8859-1"?>
<!-- Uploaded to: SVG Repo, www.svgrepo.com, Generator: SVG Repo Mixer Tools -->
<svg height="800px" width="800px" version="1.1" id="Layer_1" xmlns="http://www.w3.org/2000/svg" xmlns:xlink="http://www.w3.org/1999/xlink" 
	 viewBox="0 0 467.901 467.901" xml:space="preserve">
<g id="XMLID_1512_">
	<g id="XMLID_953_">
		<path id="XMLID_954_" style="fill:#2D2D30;" d="M233.907,249.77c-8.284,0-15-6.716-15-15v-97.522
			c0-56.554,46.01-102.564,102.565-102.564h71.749c8.284,0,15,6.716,15,15s-6.716,15-15,15h-71.749
			c-40.012,0-72.565,32.552-72.565,72.564v97.522C248.907,243.054,242.191,249.77,233.907,249.77z"/>
	</g>
	<path id="XMLID_955_" style="fill:#3E3D42;" d="M467.834,321.723c-0.811-42.846-9.396-93.075-20.418-119.436
		c-16.308-38.968-54.137-64.147-96.374-64.147c-13.842,0-27.381,2.729-40.234,8.107c-15.453,6.458-29.05,16.477-39.719,29.202
		h-74.277c-10.67-12.727-24.266-22.744-39.714-29.2c-12.86-5.381-26.398-8.11-40.24-8.11c-42.236,0-80.065,25.179-96.377,64.152
		C9.462,228.649,0.877,278.878,0.067,321.723c-0.48,25.424,1.627,47.001,6.264,64.132c6.2,22.904,17.018,37.724,32.147,44.047
		c5.256,2.2,10.988,3.315,17.036,3.315c33.643,0,71.767-34.291,99.282-65.184H313.11c27.514,30.891,65.634,65.18,99.276,65.184
		c0.001,0,0.003,0,0.005,0c6.045,0,11.775-1.115,17.025-3.312c15.136-6.326,25.954-21.146,32.153-44.05
		C466.207,368.724,468.314,347.146,467.834,321.723z"/>
	<path id="XMLID_956_" style="fill:#2D2D30;" d="M467.834,321.723c-0.811-42.846-9.396-93.075-20.418-119.436
		c-16.308-38.968-54.137-64.147-96.374-64.147c-13.842,0-27.381,2.729-40.234,8.107c-15.453,6.458-29.05,16.477-39.719,29.202
		H233.95v192.584h79.16c27.514,30.891,65.634,65.18,99.276,65.184c0.001,0,0.003,0,0.005,0c6.045,0,11.775-1.115,17.025-3.312
		c15.136-6.326,25.954-21.146,32.153-44.05C466.207,368.724,468.314,347.146,467.834,321.723z"/>
	<g id="XMLID_957_">
		<path id="XMLID_958_" style="fill:#165C92;" d="M143.926,271.096H67.313c-8.284,0-15-6.716-15-15c0-8.284,6.716-15,15-15h76.614
			c8.284,0,15,6.716,15,15C158.926,264.38,152.21,271.096,143.926,271.096z"/>
	</g>
	<g id="XMLID_959_">
		<path id="XMLID_960_" style="fill:#1A6FB0;" d="M105.62,309.403c-8.284,0-15-6.716-15-15V217.79c0-8.284,6.716-15,15-15
			s15,6.716,15,15v76.614C120.62,302.688,113.904,309.403,105.62,309.403z"/>
	</g>
	<circle id="XMLID_961_" style="fill:#CD2A00;" cx="367.728" cy="256.096" r="42.831"/>
	<path id="XMLID_962_" style="fill:#AB2300;" d="M410.559,256.096c0,23.655-19.176,42.831-42.831,42.831v-85.662
		C391.383,213.266,410.559,232.441,410.559,256.096z"/>
	<path id="XMLID_1458_" style="fill:#2D2D30;" d="M210.129,316.484h-37.592c-4.848,0-8.778-3.93-8.778-8.778l0,0
		c0-4.848,3.93-8.778,8.778-8.778h37.592c4.848,0,8.778,3.93,8.778,8.778l0,0C218.907,312.553,214.977,316.484,210.129,316.484z"/>
	<path id="XMLID_1460_" style="fill:#3E3D42;" d="M299.007,316.484h-37.592c-4.848,0-8.778-3.93-8.778-8.778l0,0
		c0-4.848,3.93-8.778,8.778-8.778h37.592c4.848,0,8.778,3.93,8.778,8.778l0,0C307.786,312.553,303.856,316.484,299.007,316.484z"/>
</g>
</svg>